M48
;Layer_Color=9474304
;FILE_FORMAT=2:5
INCH,LZ
;TYPE=PLATED
T1F00S00C0.01500
T2F00S00C0.02200
T3F00S00C0.02600
T4F00S00C0.03000
T5F00S00C0.07600
T6F00S00C0.08500
T7F00S00C0.14000
%
T01
X0031868Y0042559
X0035168
X00298Y0046109
X0049401Y0047608
X0047209Y00498
X0052Y0043609
X00588
X00716Y0042709
X0077249Y0013396
X0077218Y0009709
X0101218Y0013646
X0101249Y0017333
X0126168Y0037177
X0150168Y0040709
X0151555Y0051709
X01561Y0053937
X0159449Y0048819
X0159055Y0037008
X0166469Y0008177
X0175409Y0004468
X0191703Y0042559
X0195003
X0212066Y0048143
X0209874Y0050335
X0216091Y00491
X02334Y0042409
X0166535Y0070866
X0129508Y0061709
X0237084Y001349
X0237053Y0009803
X0261053Y001374
X0261084Y0017427
X02864Y0021409
X02822Y0036009
X02791Y0039309
X029Y0040309
X03065Y0040709
X0314
X0311368Y0046709
X03065Y0063709
X0296708Y0061709
X0284941Y0066949
X0280982Y0085609
X03111Y0017009
X031659Y0012449
T02
X00398Y0065709
Y0070709
Y0075709
Y0080709
X00448
Y0075709
Y0070709
Y0065709
X00498
X00548
X00598
X00648
X00698
X00748
Y0070709
X00698
X00648
X00598
X00548
X00498
Y0075709
X00548
X00598
X00648
X00698
X00748
Y0080709
X00698
X00648
X00598
X00548
X00498
X00798
Y0075709
Y0070709
Y0065709
X00848
X00898
X00948
X00998
X01048
X01098
Y0070709
Y0075709
Y0080709
X01048
Y0075709
Y0070709
X00998
X00948
X00898
X00848
Y0075709
X00898
X00948
X00998
Y0080709
X00948
X00898
X00848
X0207
Y0075709
Y0070709
Y0065709
X0212
X0217
X0222
X0227
X0232
Y0070709
X0227
X0222
X0217
X0212
Y0075709
X0217
X0222
X0227
X0232
Y0080709
X0227
X0222
X0217
X0212
X0237
Y0075709
Y0070709
Y0065709
X0242
X0247
X0252
X0257
X0262
X0267
X0272
X0277
Y0070709
Y0075709
Y0080709
X0272
Y0075709
Y0070709
X0267
X0262
X0257
X0252
X0247
X0242
Y0075709
X0247
X0252
X0257
X0262
X0267
Y0080709
X0262
X0257
X0252
X0247
X0242
T03
X0110868Y0020409
X0105868Y0025409
Y0035409
X0110868Y0040409
X0115868Y0035409
X0115868Y0025409
X0265303Y0024959
X0270303Y0019959
X0275303Y0024959
Y0034959
X0270303Y0039959
X0265303Y0034959
T04
X0040868Y0022909
X0048368
Y0030409
X0055868
X0063368
Y0037909
X0055868
X0048368
X0040868
Y0030409
X0055868Y0022909
X0063368
X0070868
Y0030409
X0078368
X0078368Y0022909
Y0037909
X0070868
X0085868
Y0030409
X0093368
Y0037909
Y0022909
X0085868Y0022909
X0200303Y0022459
X0207803
Y0029959
X0215303
X0222803
Y0037459
X0230303
Y0029959
Y0022459
X0222803
X0215303
Y0037459
X0207803
X0200303
Y0029959
X0237803Y0029959
Y0037459
X0245303
Y0029959
Y0022459
X0237803
X0252803
Y0029959
Y0037459
T05
X0040868Y0009909
X0115868
X0200303Y0009459
X0275303
T06
X0017868Y0022909
X0138868
X0177303Y0022459
X0298303
T07
X00108Y0080709
X01393
X0178
X03065
M30
