G04 Layer_Color=8388736*
%FSLAX25Y25*%
%MOIN*%
G70*
G01*
G75*
%ADD40C,0.18300*%
%ADD41C,0.04000*%
%ADD42C,0.05300*%
%ADD43C,0.10300*%
%ADD44C,0.11800*%
D40*
X306500Y80709D02*
D03*
X178000D02*
D03*
X139300D02*
D03*
X10800D02*
D03*
D41*
X277000Y65709D02*
D03*
X207000D02*
D03*
Y70709D02*
D03*
X277000D02*
D03*
Y75709D02*
D03*
X207000D02*
D03*
Y80709D02*
D03*
X277000D02*
D03*
X212000Y65709D02*
D03*
X217000D02*
D03*
X222000D02*
D03*
X227000D02*
D03*
X232000D02*
D03*
X237000D02*
D03*
X242000D02*
D03*
X247000D02*
D03*
X252000D02*
D03*
X257000D02*
D03*
X262000D02*
D03*
X267000D02*
D03*
X272000D02*
D03*
Y70709D02*
D03*
X267000D02*
D03*
X262000D02*
D03*
X257000D02*
D03*
X252000D02*
D03*
X247000D02*
D03*
X242000D02*
D03*
X237000D02*
D03*
X232000D02*
D03*
X227000D02*
D03*
X222000D02*
D03*
X217000D02*
D03*
X212000D02*
D03*
Y75709D02*
D03*
X217000D02*
D03*
X222000D02*
D03*
X227000D02*
D03*
X232000D02*
D03*
X237000D02*
D03*
X242000D02*
D03*
X247000D02*
D03*
X252000D02*
D03*
X257000D02*
D03*
X262000D02*
D03*
X267000D02*
D03*
X272000D02*
D03*
Y80709D02*
D03*
X267000D02*
D03*
X262000D02*
D03*
X257000D02*
D03*
X252000D02*
D03*
X247000D02*
D03*
X242000D02*
D03*
X237000D02*
D03*
X232000D02*
D03*
X227000D02*
D03*
X222000D02*
D03*
X217000D02*
D03*
X212000D02*
D03*
X109800Y65709D02*
D03*
X39800D02*
D03*
Y70709D02*
D03*
X109800D02*
D03*
Y75709D02*
D03*
X39800D02*
D03*
Y80709D02*
D03*
X109800D02*
D03*
X44800Y65709D02*
D03*
X49800D02*
D03*
X54800D02*
D03*
X59800D02*
D03*
X64800D02*
D03*
X69800D02*
D03*
X74800D02*
D03*
X79800D02*
D03*
X84800D02*
D03*
X89800D02*
D03*
X94800D02*
D03*
X99800D02*
D03*
X104800D02*
D03*
Y70709D02*
D03*
X99800D02*
D03*
X94800D02*
D03*
X89800D02*
D03*
X84800D02*
D03*
X79800D02*
D03*
X74800D02*
D03*
X69800D02*
D03*
X64800D02*
D03*
X59800D02*
D03*
X54800D02*
D03*
X49800D02*
D03*
X44800D02*
D03*
Y75709D02*
D03*
X49800D02*
D03*
X54800D02*
D03*
X59800D02*
D03*
X64800D02*
D03*
X69800D02*
D03*
X74800D02*
D03*
X79800D02*
D03*
X84800D02*
D03*
X89800D02*
D03*
X94800D02*
D03*
X99800D02*
D03*
X104800D02*
D03*
Y80709D02*
D03*
X99800D02*
D03*
X94800D02*
D03*
X89800D02*
D03*
X84800D02*
D03*
X79800D02*
D03*
X74800D02*
D03*
X69800D02*
D03*
X64800D02*
D03*
X59800D02*
D03*
X54800D02*
D03*
X49800D02*
D03*
X44800D02*
D03*
D42*
X105868Y25409D02*
D03*
X110868Y20409D02*
D03*
X115868Y25409D02*
D03*
X115868Y35409D02*
D03*
X110868Y40409D02*
D03*
X105868Y35409D02*
D03*
X40868Y37909D02*
D03*
X63368D02*
D03*
X78368D02*
D03*
X85868D02*
D03*
X55868Y30409D02*
D03*
X48368D02*
D03*
X40868Y22909D02*
D03*
X48368D02*
D03*
X70868D02*
D03*
X85868Y22909D02*
D03*
X93368Y30409D02*
D03*
X85868D02*
D03*
X78368Y30409D02*
D03*
X70868D02*
D03*
X63368Y30409D02*
D03*
X40868D02*
D03*
X93368Y37909D02*
D03*
X70868D02*
D03*
X55868D02*
D03*
X48368D02*
D03*
X55868Y22909D02*
D03*
X63368D02*
D03*
X78368Y22909D02*
D03*
X93368Y22909D02*
D03*
X265303Y24959D02*
D03*
X270303Y19959D02*
D03*
X275303Y24959D02*
D03*
Y34959D02*
D03*
X270303Y39959D02*
D03*
X265303Y34959D02*
D03*
X200303Y37459D02*
D03*
X222803D02*
D03*
X237803D02*
D03*
X245303D02*
D03*
X215303Y29959D02*
D03*
X207803D02*
D03*
X200303Y22459D02*
D03*
X207803D02*
D03*
X230303D02*
D03*
X245303D02*
D03*
X252803Y29959D02*
D03*
X245303D02*
D03*
X237803D02*
D03*
X230303D02*
D03*
X222803D02*
D03*
X200303Y29959D02*
D03*
X252803Y37459D02*
D03*
X230303D02*
D03*
X215303D02*
D03*
X207803D02*
D03*
X215303Y22459D02*
D03*
X222803D02*
D03*
X237803D02*
D03*
X252803D02*
D03*
D43*
X115868Y9909D02*
D03*
X40868D02*
D03*
X275303Y9459D02*
D03*
X200303D02*
D03*
D44*
X138868Y22909D02*
D03*
X17868D02*
D03*
X298303Y22459D02*
D03*
X177303D02*
D03*
M02*
