G04 Layer_Color=128*
%FSLAX25Y25*%
%MOIN*%
G70*
G01*
G75*
%ADD18R,0.02362X0.01969*%
%ADD19R,0.02756X0.03543*%
%ADD20R,0.01969X0.02362*%
%ADD21R,0.04724X0.02284*%
%ADD22R,0.07008X0.01654*%
%ADD23R,0.05000X0.01000*%
%ADD24R,0.01000X0.03000*%
G04:AMPARAMS|DCode=25|XSize=50mil|YSize=10mil|CornerRadius=0mil|HoleSize=0mil|Usage=FLASHONLY|Rotation=315.000|XOffset=0mil|YOffset=0mil|HoleType=Round|Shape=Rectangle|*
%AMROTATEDRECTD25*
4,1,4,-0.02121,0.01414,-0.01414,0.02121,0.02121,-0.01414,0.01414,-0.02121,-0.02121,0.01414,0.0*
%
%ADD25ROTATEDRECTD25*%

%ADD26R,0.04500X0.01000*%
G04:AMPARAMS|DCode=27|XSize=50mil|YSize=10mil|CornerRadius=0mil|HoleSize=0mil|Usage=FLASHONLY|Rotation=45.000|XOffset=0mil|YOffset=0mil|HoleType=Round|Shape=Rectangle|*
%AMROTATEDRECTD27*
4,1,4,-0.01414,-0.02121,-0.02121,-0.01414,0.01414,0.02121,0.02121,0.01414,-0.01414,-0.02121,0.0*
%
%ADD27ROTATEDRECTD27*%

%ADD28R,0.06000X0.01000*%
%ADD29R,0.02284X0.04724*%
%ADD30R,0.01654X0.07008*%
%ADD31R,0.01000X0.05000*%
%ADD32R,0.03000X0.01000*%
%ADD33R,0.01000X0.04500*%
%ADD34R,0.01000X0.06000*%
D18*
X192000Y64740D02*
D03*
Y68677D02*
D03*
X314000Y37177D02*
D03*
Y33240D02*
D03*
X302000Y37177D02*
D03*
Y33240D02*
D03*
X290000Y37177D02*
D03*
Y33240D02*
D03*
X314000Y24677D02*
D03*
Y20740D02*
D03*
X284941Y74417D02*
D03*
Y70480D02*
D03*
X290941Y74417D02*
D03*
Y70480D02*
D03*
X308000Y33240D02*
D03*
Y37177D02*
D03*
X296000Y33240D02*
D03*
Y37177D02*
D03*
X252053Y11803D02*
D03*
Y15740D02*
D03*
X258053D02*
D03*
Y11803D02*
D03*
X264053Y15740D02*
D03*
Y11803D02*
D03*
X234053D02*
D03*
Y15740D02*
D03*
X240053Y11803D02*
D03*
Y15740D02*
D03*
X246053Y11803D02*
D03*
Y15740D02*
D03*
X137168Y33240D02*
D03*
Y37177D02*
D03*
X143668Y33240D02*
D03*
Y37177D02*
D03*
X130668D02*
D03*
Y33240D02*
D03*
X150168Y37177D02*
D03*
Y33240D02*
D03*
X80218Y11709D02*
D03*
Y15646D02*
D03*
X74218Y11709D02*
D03*
Y15646D02*
D03*
X104218D02*
D03*
Y11709D02*
D03*
X98218Y15646D02*
D03*
Y11709D02*
D03*
X92218D02*
D03*
Y15646D02*
D03*
X86168Y11772D02*
D03*
Y15709D02*
D03*
D19*
X287941Y88689D02*
D03*
X285382Y81209D02*
D03*
X290500D02*
D03*
X294000Y4969D02*
D03*
X296559Y12449D02*
D03*
X291441D02*
D03*
X310500Y4969D02*
D03*
X313059Y12449D02*
D03*
X307941D02*
D03*
X181500Y11949D02*
D03*
X178941Y4468D02*
D03*
X184059D02*
D03*
D20*
X162531Y11709D02*
D03*
X166469D02*
D03*
X162531Y18209D02*
D03*
X166469D02*
D03*
D21*
X293176Y61709D02*
D03*
X315224D02*
D03*
X293176Y56709D02*
D03*
X315224D02*
D03*
X293176Y51709D02*
D03*
X315224D02*
D03*
X293176Y46709D02*
D03*
X315224D02*
D03*
X125976Y61709D02*
D03*
X148024D02*
D03*
X125976Y56709D02*
D03*
X148024D02*
D03*
X125976Y51709D02*
D03*
X148024D02*
D03*
X125976Y46709D02*
D03*
X148024D02*
D03*
D22*
X305066Y50759D02*
D03*
Y53059D02*
D03*
Y55359D02*
D03*
Y57659D02*
D03*
X281680D02*
D03*
Y55359D02*
D03*
Y53059D02*
D03*
Y50759D02*
D03*
X137866Y50759D02*
D03*
Y53059D02*
D03*
Y55359D02*
D03*
Y57659D02*
D03*
X114480D02*
D03*
Y55359D02*
D03*
Y53059D02*
D03*
Y50759D02*
D03*
D23*
X310200Y53059D02*
D03*
Y55359D02*
D03*
X143000Y53059D02*
D03*
Y55359D02*
D03*
D24*
X313058Y52043D02*
D03*
Y56374D02*
D03*
X290834D02*
D03*
Y52043D02*
D03*
X145858Y52043D02*
D03*
Y56374D02*
D03*
X123634D02*
D03*
Y52043D02*
D03*
D25*
X311680Y49091D02*
D03*
X289456D02*
D03*
X160882Y61689D02*
D03*
Y39465D02*
D03*
X144480Y49091D02*
D03*
X122256D02*
D03*
D26*
X308200Y50759D02*
D03*
Y57659D02*
D03*
X285976D02*
D03*
Y50759D02*
D03*
X141000Y50759D02*
D03*
Y57659D02*
D03*
X118776D02*
D03*
Y50759D02*
D03*
D27*
X311680Y59327D02*
D03*
X289456D02*
D03*
X171118Y61689D02*
D03*
Y39465D02*
D03*
X144480Y59327D02*
D03*
X122256D02*
D03*
D28*
X287976Y55359D02*
D03*
Y53059D02*
D03*
X120776Y55359D02*
D03*
Y53059D02*
D03*
D29*
X158500Y43185D02*
D03*
Y65232D02*
D03*
X163500Y43185D02*
D03*
Y65232D02*
D03*
X168500Y43185D02*
D03*
Y65232D02*
D03*
X173500Y43185D02*
D03*
Y65232D02*
D03*
D30*
X169450Y55075D02*
D03*
X167150D02*
D03*
X164850D02*
D03*
X162550D02*
D03*
Y31689D02*
D03*
X164850D02*
D03*
X167150D02*
D03*
X169450D02*
D03*
D31*
X167150Y60209D02*
D03*
X164850D02*
D03*
D32*
X168165Y63067D02*
D03*
X163835D02*
D03*
Y40843D02*
D03*
X168165D02*
D03*
D33*
X169450Y58209D02*
D03*
X162550D02*
D03*
Y35984D02*
D03*
X169450D02*
D03*
D34*
X164850Y37984D02*
D03*
X167150D02*
D03*
M02*
